<svg xmlns="http://www.w3.org/2000/svg" viewBox="0 0 32 32" width="32" height="32">
  <defs>
    <clipPath id="shield-clip">
      <path d="M16 2 L28 6 L28 18 C28 24 22 29 16 31 C10 29 4 24 4 18 L4 6 Z"/>
    </clipPath>
  </defs>

  <!-- Shield background -->
  <path d="M16 2 L28 6 L28 18 C28 24 22 29 16 31 C10 29 4 24 4 18 L4 6 Z"
        fill="#0D1526"/>

  <!-- Shield inner face -->
  <path d="M16 3.5 L26.5 7 L26.5 18 C26.5 23 21.5 27.5 16 29.5 C10.5 27.5 5.5 23 5.5 18 L5.5 7 Z"
        fill="#111E38"/>

  <!-- Lightning bolt -->
  <path d="M19.5 5.5 L12.5 16.5 L16.5 16.5 L12 26.5 L21 14.5 L17 14.5 Z"
        fill="#F5C523"
        stroke="#F5C523"
        stroke-width="0.3"
        stroke-linejoin="round"/>

  <!-- Shield border -->
  <path d="M16 2 L28 6 L28 18 C28 24 22 29 16 31 C10 29 4 24 4 18 L4 6 Z"
        fill="none"
        stroke="#2B6FD4"
        stroke-width="1.2"
        stroke-linejoin="round"/>
</svg>